# xmcd
#
# Track frame offsets:
#	150
#	9275
#	18597
#	32375
#	47930
#	57118
#	70782
#	84567
#	96627
#	111864
#
# Disc length: 1662 seconds
#
# Revision: 0
# Processed by: cddbd v1.5.2PL0 Copyright (c) Steve Scherf et al.
# Submitted via: audiograbber 1.83.01
#
DISCID=7a067c0a
DTITLE=Richard Streeter - Richard Streeter
DYEAR=1900
DGENRE=
TTITLE0=When You Gave Your Love
TTITLE1=Even After We´re Old
TTITLE2=This Dream I Dream
TTITLE3=One More Broken Heart
TTITLE4=She´s The Key To My Heart
TTITLE5=One Way In
TTITLE6=Tear It Up
TTITLE7=Sleeping Alone
TTITLE8=Fire And Smoke
TTITLE9=Rag Top
EXTD=
EXTT0=
EXTT1=
EXTT2=
EXTT3=
EXTT4=
EXTT5=
EXTT6=
EXTT7=
EXTT8=
EXTT9=
PLAYORDER=
